<svg width="22" height="24" viewBox="0 0 22 24" fill="none" xmlns="http://www.w3.org/2000/svg">
<path d="M11 0.986816C10.4 0.986816 10 1.38682 10 1.98682C10 1.98682 10 1.98682 10 2.08682C5.5 2.58682 2 6.38682 2 10.9868V11.4868H1.3C0.9 11.4868 0.5 11.7868 0.5 12.1868C0.5 12.6868 0.8 12.9868 1.2 12.9868H2.7H3.6C3.5 13.2868 3.5 13.4868 3.5 13.7868C3.5 14.2868 3.7 14.6868 3.8 14.8868C4.1 15.5868 4.2 16.1868 4.3 16.7868C4.4 17.2868 4.5 17.7868 4.9 18.1868L4.2 20.0868C4.1 20.4868 4.3 20.8868 4.6 21.0868C5 21.1868 5.4 20.9868 5.6 20.6868L6.2 18.9868L10.1 20.3868L9.6 21.9868C9.5 22.3868 9.7 22.7868 10 22.9868C10.4 23.0868 10.8 22.8868 11 22.5868L11.8 20.2868C11.9 20.0868 12.4 19.3868 13 18.8868C13.6 18.2868 14.3 17.7868 14.7 17.4868C16.4 16.2868 18 15.3868 18 15.3868C18.8 14.8868 19.1 13.9868 18.9 13.1868H19.2H20.7C21.1 13.1868 21.5 12.8868 21.5 12.4868C21.5 12.0868 21.2 11.6868 20.8 11.6868H20V10.9868C20 6.38682 16.5 2.58682 12 2.08682C12 1.48682 11.6 0.986816 11 0.986816ZM11 3.48682C15.2 3.48682 18.5 6.78682 18.5 10.9868V11.4868H17H3.5V10.9868C3.5 6.78682 6.9 3.48682 11 3.48682ZM5.7 12.9868H5.8C6 12.9868 6.1 13.0868 6.3 13.1868C6.3 13.1868 6.3 13.2868 6.4 13.2868C6.5 13.3868 6.6 13.5868 6.7 13.8868C7 14.2868 7.3 14.7868 7.7 15.1868C8.4 15.9868 9.3 15.9868 9.8 15.9868C10.6 15.9868 11.2 15.5868 12.1 15.1868C13 14.7868 13.9 14.2868 14.7 13.8868C14.9 13.7868 15.3 13.5868 15.8 13.3868C16.3 13.1868 16.8 12.9868 17.1 12.9868C17.3 12.9868 17.5 13.0868 17.6 13.2868C17.7 13.4868 17.6 13.7868 17.4 13.8868C17.4 13.8868 15.7 14.7868 14 16.0868C13.5 16.4868 12.8 17.0868 12.1 17.6868C11.7 18.0868 11.3 18.4868 10.9 18.9868L6.3 17.3868C6.1 17.1868 6 16.9868 6 16.5868C5.9 16.0868 5.8 15.2868 5.4 14.3868C5.3 14.0868 5.2 13.8868 5.2 13.7868C5.2 13.5868 5.3 13.3868 5.4 13.2868C5.4 13.0868 5.5 12.9868 5.7 12.9868ZM7.9 12.9868H13.2C12.6 13.2868 12 13.5868 11.5 13.8868C10.7 14.2868 9.9 14.4868 9.8 14.4868C9.3 14.4868 9.1 14.4868 8.8 14.1868C8.6 13.9868 8.2 13.4868 8 13.0868C7.9 13.0868 7.9 12.9868 7.9 12.9868ZM7.8 20.5868C7.4 20.5868 7 20.8868 7 21.3868C7 21.7868 7.3 22.1868 7.8 22.1868C8.2 22.1868 8.6 21.8868 8.6 21.3868C8.5 20.8868 8.2 20.5868 7.8 20.5868Z" fill="#212629"/>
</svg>
