<svg width="24" height="18" viewBox="0 0 24 18" fill="none" xmlns="http://www.w3.org/2000/svg">
<path d="M15.7453 0.799988H15.6453H13.2453C12.8453 0.799988 12.4453 1.09999 12.4453 1.49999C12.4453 1.89999 12.7453 2.29999 13.1453 2.29999H15.0453C15.3453 2.99999 15.9453 5.09999 15.9453 7.59999C15.9453 8.89999 15.6453 9.79999 15.3453 10.2C15.0453 10.7 14.6453 10.8 14.1453 10.8H10.7453C10.2453 10.8 9.94531 10.5 9.94531 10.1V8.09999V2.59999C9.94531 2.09999 9.64531 1.79999 9.24531 1.79999H6.34531H6.24531H6.14531H3.24531C2.74531 1.79999 2.44531 2.09999 2.44531 2.59999V7.39999H1.74531C1.24531 7.29999 0.945312 7.59999 0.945312 7.99999C0.945312 8.49999 1.24531 8.79999 1.64531 8.79999H2.54531C2.24531 9.39999 1.94531 10.2 1.94531 11.1C1.94531 11.3 2.04531 11.5 2.14531 11.6C2.14531 11.6 2.64531 12.2 3.54531 12.9C3.24531 13.4 2.94531 13.9 2.94531 14.5C2.94531 16 4.14531 17.2 5.74531 17.2C7.04531 17.2 8.14531 16.3 8.44531 15.1C8.84531 15.2 9.24531 15.2 9.64531 15.2H16.6453C16.9453 16.3 18.0453 17.2 19.2453 17.2C20.7453 17.2 22.0453 16 22.0453 14.5C22.0453 14.3 22.0453 14.1 21.9453 13.9L22.8453 13C23.0453 12.8 23.1453 12.4 22.9453 12.1C22.9453 12.1 21.9453 10.3 19.9453 9.79999C19.8453 6.99999 18.8453 4.69999 17.9453 3.09999H18.7453C18.8453 3.09999 19.0453 2.99999 19.0453 2.79999V1.59999C19.0453 1.49999 18.9453 1.29999 18.7453 1.29999H17.3453C17.1453 1.29999 16.8453 1.39999 16.7453 1.49999C16.5453 1.19999 16.4453 1.09999 16.3453 0.999988C16.0453 0.899988 15.9453 0.799988 15.7453 0.799988ZM3.94531 3.29999H5.44531V4.59999C5.44531 4.99999 5.74531 5.39999 6.14531 5.39999C6.64531 5.29999 6.94531 4.99999 6.94531 4.59999V3.29999H8.44531V7.29999H4.34531C4.24531 7.29999 4.24531 7.29999 4.14531 7.29999H3.94531V3.29999ZM17.3453 5.39999C17.9453 6.79999 18.4453 8.59999 18.4453 10.6C18.4453 11 18.7453 11.3 19.2453 11.4C20.3453 11.4 20.9453 12.1 21.2453 12.6L20.9453 12.8C20.8453 12.8 20.7453 12.8 20.7453 12.8H18.7453C17.9453 12.8 17.3453 13.2 16.9453 13.6C16.8453 13.7 16.8453 13.7 16.8453 13.8H9.54531C6.34531 13.8 3.84531 11.2 3.54531 10.8C3.64531 9.69999 4.24531 8.99999 4.54531 8.79999H8.54531V10.1C8.54531 11.3 9.54531 12.4 10.8453 12.4H14.3453C15.2453 12.4 16.1453 12 16.7453 11.1C17.3453 10.3 17.6453 9.09999 17.6453 7.59999C17.4453 6.79999 17.4453 6.09999 17.3453 5.39999ZM4.74531 13.8C5.34531 14.2 6.14531 14.6 6.94531 14.8C6.84531 15.4 6.34531 15.8 5.74531 15.8C5.04531 15.8 4.44531 15.2 4.44531 14.5C4.44531 14.3 4.54531 14 4.74531 13.8ZM18.7453 14.3H20.4453C20.4453 14.4 20.4453 14.5 20.4453 14.6C20.4453 15.3 19.8453 15.9 19.1453 15.9C18.4453 15.9 17.9453 15.4 17.9453 14.8C17.9453 14.8 17.9453 14.7 18.0453 14.7C18.1453 14.4 18.2453 14.3 18.7453 14.3Z" fill="#212629"/>
</svg>
