<svg width="20" height="22" viewBox="0 0 20 22" fill="none" xmlns="http://www.w3.org/2000/svg">
<path d="M2.8 0.5C1.5 0.5 0.5 1.5 0.5 2.8V18.3C0.5 19.5 1.5 20.5 2.8 20.5H11.5C11.1 20.1 10.7 19.6 10.4 19H2.8C2.4 19 2 18.6 2 18.2V2.8C2 2.4 2.3 2 2.8 2H8.5V6.3C8.5 7.5 9.5 8.5 10.8 8.5H15.1V9C15.6 9 16 9.2 16.3 9.6C16.4 9.7 16.5 9.9 16.6 10V7.8C16.6 7.6 16.5 7.4 16.4 7.3L9.8 0.7C9.6 0.6 9.4 0.5 9.3 0.5H2.8ZM10 3.1L13.9 7H10.7C10.3 7 9.9 6.6 9.9 6.2V3.1H10ZM15 10C14.9 10 14.7 10.1 14.6 10.2C13.2 12 11 12 11 12C10.7 12 10.5 12.2 10.5 12.5V15.5C10.5 20.4 14.9 21.5 14.9 21.5H15H15.1C15.1 21.5 19.5 20.4 19.5 15.5V12.5C19.5 12.2 19.2 12 19 12C19 12 16.8 12 15.4 10.2C15.3 10.1 15.1 10 15 10ZM5.3 11C4.9 11 4.5 11.4 4.5 11.8C4.5 12.2 4.9 12.5 5.3 12.5H9.5C9.5 11.7 10.1 11.1 10.8 11H5.3ZM5.3 14.5C4.9 14.5 4.5 14.9 4.5 15.3C4.5 15.7 4.9 16.1 5.3 16.1H9.5V15.5V14.5H5.3Z" fill="#212629"/>
</svg>
