<svg width="20" height="20" viewBox="0 0 20 20" fill="none" xmlns="http://www.w3.org/2000/svg">
<path d="M4.7 0C4.5 0 4.3 0.1 4.2 0.3L3.6 1C2.8 1.9 2.8 3.2 3.4 4.2C3.7 4.6 3.7 5 3.4 5.4L2.6 6.9C2.4 7.3 2.5 7.7 2.8 7.9C3.2 8.1 3.6 8 3.8 7.7L4.7 6.2C5.2 5.3 5.2 4.2 4.6 3.3C4.4 2.9 4.4 2.4 4.7 2L5.3 1.3C5.6 1 5.5 0.5 5.2 0.2C5.1 0.1 4.9 0 4.7 0ZM7.7 0C7.5 0 7.3 0.1 7.2 0.3L6.6 1C5.8 1.9 5.8 3.2 6.4 4.2C6.7 4.6 6.7 5 6.4 5.4L5.6 6.9C5.4 7.3 5.5 7.7 5.8 7.9C6.2 8.1 6.6 8 6.8 7.7L7.7 6.2C8.2 5.3 8.2 4.2 7.6 3.3C7.4 2.9 7.4 2.4 7.7 2L8.3 1.3C8.6 1 8.5 0.5 8.2 0.2C8.1 0.1 7.9 0 7.7 0ZM10.7 0C10.5 0 10.3 0.1 10.1 0.3L9.6 1C8.8 1.9 8.8 3.2 9.4 4.2C9.7 4.6 9.7 5 9.4 5.4L8.6 6.9C8.4 7.3 8.5 7.7 8.8 7.9C9.2 8.1 9.6 8 9.8 7.7L10.7 6.2C11.2 5.3 11.2 4.2 10.6 3.3C10.3 2.9 10.3 2.3 10.7 1.9L11.3 1.2C11.6 0.9 11.5 0.4 11.2 0.1C11.1 0.1 10.9 0 10.7 0ZM19 3.8C18.8 3.8 18.6 3.9 18.5 4L12.5 10H1.8C0.8 10 0 10.8 0 11.8C0 16.3 3.7 20 8.3 20H12.8C15.1 20 16.9 19 18.2 17.5C19.4 16 20 14 20 11.8C20 10.8 19.2 10 18.2 10H14.5L19.5 5C19.8 4.7 19.8 4.2 19.5 3.9C19.4 3.8 19.2 3.7 19 3.8ZM1.8 11.5H12.7C12.8 11.5 12.8 11.5 12.9 11.5H18.3C18.4 11.5 18.6 11.6 18.6 11.8C18.6 13.7 18 15.4 17.1 16.6C16.2 17.8 14.7 18.5 12.9 18.5H8.3C4.6 18.5 1.5 15.5 1.5 11.8C1.5 11.6 1.6 11.5 1.8 11.5Z" fill="#212629"/>
</svg>
