<svg width="20" height="20" viewBox="0 0 20 20" fill="none" xmlns="http://www.w3.org/2000/svg">
<path d="M10 0C4.5 0 0 4.5 0 10C0 15.5 4.5 20 10 20C15.5 20 20 15.5 20 10C20 4.5 15.5 0 10 0ZM10 1.5C14.7 1.5 18.5 5.3 18.5 10C18.5 14.7 14.7 18.5 10 18.5C5.3 18.5 1.5 14.7 1.5 10C1.5 5.3 5.3 1.5 10 1.5ZM13.2 6C13 6 12.8 6.1 12.7 6.2L10 8.9L7.3 6.2C7.1 6.1 6.9 6 6.7 6C6.3 6 6 6.3 6 6.7C6 6.9 6.1 7.1 6.2 7.2L8.9 10L6.2 12.7C5.9 13 5.9 13.5 6.2 13.8C6.5 14.1 7 14.1 7.3 13.8L10 11.1L12.7 13.8C13 14.1 13.5 14.1 13.8 13.8C14.1 13.5 14.1 13 13.8 12.7L11.1 10L13.8 7.3C14.1 7 14.1 6.5 13.8 6.2C13.7 6.1 13.5 6 13.2 6Z" fill="white"/>
</svg>
