<svg width="16" height="20" viewBox="0 0 16 20" fill="none" xmlns="http://www.w3.org/2000/svg">
<path d="M2.3 0.950195C1.3 0.950195 0.5 1.7502 0.5 2.7502V13.5502C0.8 13.1502 1.3 12.9502 1.8 12.9502H2.1V9.7502C2.1 10.1502 2.5 10.4502 2.9 10.3502C3 10.3502 3.1 10.2502 3.2 10.2502L5.5 8.4502H6.9L6 12.0502C6 12.1502 6 12.2502 6 12.4502C6 13.0502 6.4 13.6502 6.9 13.8502L9.5 15.2502L9.9 18.3502C9.9 18.7502 10.3 19.0502 10.7 19.0502C11.1 19.0502 11.4 18.6502 11.4 18.2502L10.9 14.7502C10.9 14.5502 10.8 14.4502 10.6 14.2502L8.9 12.6502L9.5 10.2502L10.5 11.6502C10.6 11.8502 10.9 11.9502 11.1 11.9502H13.9V18.2502C13.9 18.6502 14.2 19.0502 14.7 19.0502C15.2 19.0502 15.5 18.7502 15.5 18.2502V2.7502C15.5 1.7502 14.7 0.950195 13.7 0.950195H2.3ZM2.3 2.4502H13.8C13.9 2.4502 14.1 2.5502 14.1 2.7502V10.4502H11.7L9.8 7.7502C9.8 7.7502 9.8 7.7502 9.8 7.6502C9.5 7.2502 9 6.9502 8.5 6.9502H8.4H8.3H5.3C5.1 6.9502 5 7.0502 4.9 7.0502L2.3 8.9502C2.1 9.1502 2 9.2502 2 9.4502V2.7502C2 2.5502 2.1 2.4502 2.3 2.4502ZM11 3.9502C10.2 3.9502 9.5 4.6502 9.5 5.4502C9.5 6.2502 10.2 6.9502 11 6.9502C11.8 6.9502 12.5 6.2502 12.5 5.4502C12.5 4.6502 11.8 3.9502 11 3.9502ZM5.2 13.4502L4.5 13.9502H1.8C1.4 13.9502 1 14.2502 1 14.7502C1 15.2502 1.3 15.5502 1.8 15.5502H4.8C5 15.5502 5.1 15.4502 5.2 15.4502L6.6 14.9502H6.5C5.9 14.4502 5.4 13.9502 5.2 13.4502ZM0.5 15.9502V18.2502C0.5 18.6502 0.8 18.9502 1.3 18.9502C1.8 18.9502 2.1 18.6502 2.1 18.1502V16.3502H1.8C1.3 16.4502 0.8 16.2502 0.5 15.9502Z" fill="#212629"/>
</svg>
