<svg width="22" height="16" viewBox="0 0 22 16" fill="none" xmlns="http://www.w3.org/2000/svg">
<path d="M3.7502 0C2.1502 0 0.950195 1.2 0.950195 2.8V5.8V8.8V13.3C0.950195 14.8 2.1502 16 3.7502 16H18.2502C19.7502 16 21.0502 14.8 21.0502 13.2V8.8V5.8V2.8C20.9502 1.2 19.7502 0 18.2502 0H3.7502ZM3.7502 1.5H18.2502C18.9502 1.5 19.5502 2.1 19.5502 2.8V3.4C19.0502 3.1 18.6502 3 18.2502 3H3.7502C3.2502 3 2.8502 3.1 2.4502 3.3V2.8C2.4502 2.1 3.0502 1.5 3.7502 1.5ZM3.7502 4.5H18.2502C18.9502 4.5 19.5502 5.1 19.5502 5.8V6.4C19.0502 6.1 18.6502 6 18.2502 6H14.0502C13.2502 6 12.6502 6.5 12.3502 7.2C12.1502 7.8 11.5502 8.2 10.9502 8.2C10.3502 8.2 9.7502 7.8 9.5502 7.2C9.2502 6.5 8.6502 6 7.8502 6H3.7502C3.2502 6 2.8502 6.1 2.4502 6.3V5.8C2.4502 5.1 3.0502 4.5 3.7502 4.5ZM3.7502 7.5H7.9502C8.0502 7.5 8.1502 7.6 8.1502 7.7C8.5502 8.9 9.6502 9.7 10.9502 9.7C12.2502 9.7 13.3502 8.8 13.7502 7.7C13.7502 7.6 13.8502 7.5 13.9502 7.5H18.1502C18.8502 7.5 19.4502 8.1 19.4502 8.8V13.3C19.4502 14 18.8502 14.6 18.1502 14.6H3.7502C3.0502 14.6 2.4502 14 2.4502 13.3V8.8C2.4502 8.1 3.0502 7.5 3.7502 7.5Z" fill="#212629"/>
</svg>
