<svg width="22" height="16" viewBox="0 0 22 16" fill="none" xmlns="http://www.w3.org/2000/svg">
<path d="M3.2502 0C1.9502 0 0.950195 1 0.950195 2.3V13.8C0.950195 15 1.9502 16 3.2502 16H18.7502C19.9502 16 21.0502 15 21.0502 13.7V2.3C20.9502 1 19.9502 0 18.7502 0H3.2502ZM3.2502 1.5H18.7502C19.1502 1.5 19.5502 1.8 19.5502 2.3V13.8C19.5502 14.2 19.2502 14.6 18.7502 14.6H3.2502C2.8502 14.6 2.4502 14.3 2.4502 13.8V2.3C2.4502 1.8 2.7502 1.5 3.2502 1.5ZM6.9502 4.5C6.1502 4.5 5.4502 5.2 5.4502 6C5.4502 6.8 6.1502 7.5 6.9502 7.5C7.7502 7.5 8.4502 6.8 8.4502 6C8.4502 5.2 7.7502 4.5 6.9502 4.5ZM12.2502 5.5C11.8502 5.5 11.4502 5.8 11.4502 6.2C11.4502 6.6 11.7502 7 12.1502 7H16.6502C17.0502 7 17.4502 6.7 17.4502 6.3C17.4502 5.9 17.1502 5.5 16.7502 5.5H12.2502ZM5.2502 8.5C4.8502 8.5 4.4502 8.8 4.4502 9.3C4.4502 10.1 4.4502 11.6 6.9502 11.6C9.35019 11.6 9.4502 10.1 9.4502 9.3C9.4502 8.9 9.1502 8.5 8.6502 8.5H5.2502ZM12.2502 9C11.8502 9 11.4502 9.3 11.4502 9.7C11.4502 10.1 11.7502 10.5 12.1502 10.5H16.6502C17.0502 10.5 17.4502 10.2 17.4502 9.8C17.4502 9.4 17.1502 9 16.7502 9H12.2502Z" fill="#212629"/>
</svg>
