<svg width="18" height="20" viewBox="0 0 18 20" fill="none" xmlns="http://www.w3.org/2000/svg">
<path d="M9 0C4.3 0 0.5 3.8 0.5 8.5C0.5 10.6 1.3 12.5 2.5 14C2.5 14 6.1 18.1 7.4 19.4C8.3 20.2 9.6 20.2 10.5 19.4C12 18 15.5 14 15.5 14C16.8 12.5 17.5 10.6 17.5 8.5C17.5 3.8 13.7 0 9 0ZM9 1.5C12.9 1.5 16 4.6 16 8.5C16 10.2 15.4 11.8 14.3 13C14.3 13 10.8 17 9.5 18.3C9.2 18.6 8.8 18.6 8.5 18.3C7.4 17.3 3.7 13.1 3.7 13C2.7 11.8 2 10.2 2 8.5C2 4.6 5.1 1.5 9 1.5ZM9 5.5C8.1 5.5 7.3 5.9 6.8 6.5C6.2 7 6 7.8 6 8.5C6 9.2 6.2 10 6.8 10.5C7.3 11.1 8.1 11.5 9 11.5C9.9 11.5 10.7 11.1 11.2 10.5C11.7 9.9 12 9.2 12 8.5C12 7.8 11.8 7 11.2 6.5C10.7 5.9 9.9 5.5 9 5.5ZM9 7C9.6 7 9.9 7.2 10.1 7.5C10.3 7.8 10.5 8.2 10.5 8.5C10.5 8.8 10.4 9.3 10.1 9.5C9.8 9.7 9.6 10 9 10C8.4 10 8.1 9.8 7.9 9.5C7.7 9.2 7.5 8.9 7.5 8.5C7.5 8.1 7.6 7.7 7.9 7.5C8.2 7.3 8.4 7 9 7Z" fill="#212629"/>
</svg>
