<svg width="20" height="18" viewBox="0 0 20 18" fill="none" xmlns="http://www.w3.org/2000/svg">
<path d="M4.9502 0C4.2502 0 3.6502 0.3 3.1502 0.8L1.4502 2.8C1.1502 3.3 0.950195 3.8 0.950195 4.3V15.3C0.950195 16.8 2.1502 18 3.7502 18H16.2502C17.7502 18 19.0502 16.8 19.0502 15.2V4.2C19.0502 3.7 18.8502 3.2 18.5502 2.8L16.8502 0.8C16.2502 0.3 15.6502 0 14.9502 0H4.9502ZM4.9502 1.5H9.2502V3.5H2.8502L4.2502 1.8C4.4502 1.6 4.6502 1.5 4.9502 1.5ZM10.7502 1.5H14.9502C15.1502 1.5 15.3502 1.6 15.5502 1.8L16.9502 3.5H10.7502V1.5ZM2.4502 5H17.4502V15.3C17.4502 16 16.8502 16.6 16.1502 16.6H3.7502C3.0502 16.6 2.4502 16 2.4502 15.3V5ZM7.7502 7C7.2502 7 6.9502 7.3 6.9502 7.7C6.9502 8.1 7.2502 8.5 7.6502 8.5H12.1502C12.5502 8.5 12.9502 8.2 12.9502 7.8C12.9502 7.3 12.6502 7 12.2502 7H7.7502Z" fill="#212629"/>
</svg>
