<svg width="20" height="20" viewBox="0 0 20 20" fill="none" xmlns="http://www.w3.org/2000/svg">
<path d="M10.8498 0.780762C9.94981 0.780762 9.1498 1.28076 8.7498 2.08076H2.7498C1.3498 2.08076 0.0498047 3.28076 0.0498047 4.78076V6.78076C0.0498047 7.18076 0.349805 7.58076 0.749805 7.58076C1.1498 7.58076 1.5498 7.28076 1.5498 6.88076V4.78076C1.5498 4.08076 2.1498 3.58076 2.7498 3.58076H8.4498V16.5808H2.8498C2.1498 16.5808 1.6498 15.9808 1.6498 15.3808V12.7808C1.6498 12.3808 1.3498 11.9808 0.949805 11.9808C0.349805 12.0808 0.0498047 12.3808 0.0498047 12.7808V15.2808C0.0498047 16.6808 1.1498 17.8808 2.5498 17.9808C2.5498 18.5808 2.9498 18.9808 3.5498 18.9808C4.1498 18.9808 4.5498 18.5808 4.5498 17.9808H8.7498C9.1498 18.7808 10.1498 19.3808 11.0498 19.1808L15.6498 18.4808C15.8498 18.7808 16.1498 18.9808 16.4498 18.9808C16.8498 18.9808 17.2498 18.6808 17.4498 18.2808H17.6498C18.9498 18.0808 19.9498 16.8808 19.9498 15.5808V4.48076C19.9498 3.08076 18.9498 1.98076 17.6498 1.78076L11.0498 0.780762C11.0498 0.780762 10.9498 0.780762 10.8498 0.780762ZM10.7498 2.28076C10.8498 2.28076 10.8498 2.28076 10.9498 2.28076L17.5498 3.28076C18.1498 3.38076 18.6498 3.88076 18.6498 4.48076V15.5808C18.6498 16.1808 18.2498 16.6808 17.5498 16.7808L10.9498 17.7808C10.5498 17.8808 10.2498 17.5808 10.1498 17.2808C10.1498 17.1808 10.1498 17.1808 10.1498 17.0808V3.08076C10.0498 2.58076 10.3498 2.28076 10.7498 2.28076ZM14.5498 5.58076C14.0498 5.58076 13.5498 5.78076 13.2498 6.08076C12.9498 6.38076 12.6498 6.78076 12.5498 7.18076C12.2498 7.98076 12.0498 8.98076 12.0498 10.0808C12.0498 11.1808 12.1498 12.0808 12.5498 12.9808C12.7498 13.3808 12.9498 13.7808 13.2498 14.0808C13.5498 14.3808 14.0498 14.5808 14.5498 14.5808C15.0498 14.5808 15.5498 14.3808 15.8498 14.0808C16.1498 13.7808 16.4498 13.3808 16.5498 12.9808C16.8498 12.1808 17.0498 11.1808 17.0498 10.0808C17.0498 8.98076 16.9498 8.08076 16.5498 7.18076C16.3498 6.78076 16.1498 6.38076 15.8498 6.08076C15.5498 5.78076 15.0498 5.58076 14.5498 5.58076ZM4.3498 6.58076C3.9498 6.58076 3.6498 6.88076 3.6498 7.38076C3.6498 7.58076 3.7498 7.78076 3.8498 7.88076L5.0498 9.08076H0.849805C0.349805 9.08076 0.0498047 9.38076 0.0498047 9.78076C0.0498047 10.1808 0.349805 10.5808 0.749805 10.5808H5.0498L3.7498 11.7808C3.4498 12.0808 3.4498 12.5808 3.7498 12.8808C4.0498 13.1808 4.5498 13.1808 4.8498 12.8808L7.3498 10.3808C7.64981 10.0808 7.64981 9.58076 7.3498 9.28076L4.8498 6.78076C4.64981 6.58076 4.5498 6.58076 4.3498 6.58076ZM14.5498 7.08076C14.6498 7.08076 14.6498 7.08076 14.8498 7.18076C14.9498 7.28076 15.0498 7.48076 15.1498 7.78076C15.3498 8.38076 15.5498 9.18076 15.5498 10.0808C15.5498 10.9808 15.4498 11.7808 15.1498 12.3808C15.0498 12.6808 14.8498 12.8808 14.7498 12.9808C14.6498 13.0808 14.5498 13.0808 14.4498 13.0808C14.3498 13.0808 14.3498 13.0808 14.1498 12.9808C14.0498 12.8808 13.9498 12.6808 13.7498 12.3808C13.5498 11.7808 13.3498 10.9808 13.3498 10.0808C13.3498 9.18076 13.4498 8.38076 13.7498 7.78076C13.8498 7.48076 14.0498 7.28076 14.1498 7.18076C14.4498 7.08076 14.4498 7.08076 14.5498 7.08076Z" fill="#212629"/>
</svg>
