<svg width="22" height="16" viewBox="0 0 22 16" fill="none" xmlns="http://www.w3.org/2000/svg">
<path d="M4.2502 0C2.4502 0 0.950195 1.5 0.950195 3.3V12.8C0.950195 14.5 2.4502 16 4.2502 16H17.7502C19.5502 16 21.0502 14.5 21.0502 12.7V3.3C20.9502 1.5 19.4502 0 17.7502 0H4.2502ZM4.2502 1.5H17.7502C18.7502 1.5 19.5502 2.3 19.5502 3.3V3.9L10.9502 8.4L2.4502 3.8V3.3C2.4502 2.3 3.2502 1.5 4.2502 1.5ZM2.4502 5.5L10.5502 9.9C10.7502 10 11.0502 10 11.2502 9.9L19.3502 5.5V12.7C19.3502 13.7 18.5502 14.5 17.5502 14.5H4.2502C3.2502 14.5 2.4502 13.7 2.4502 12.7V5.5Z" fill="#212629"/>
</svg>
