<svg width="20" height="20" viewBox="0 0 20 20" fill="none" xmlns="http://www.w3.org/2000/svg">
<path d="M10 0.5C7.5 0.5 5.2 1 3.5 1.7C2.6 2.1 1.9 2.6 1.4 3.2C0.9 3.8 0.5 4.5 0.5 5.3C0.5 5.4 0.5 5.5 0.5 5.6C0.5 5.7 0.5 5.7 0.5 5.8V14.1C0.5 15.8 1.7 17.2 3.5 18.1C5.3 19 7.5 19.5 10 19.5C12.5 19.5 14.8 19 16.5 18C18.2 17 19.5 15.7 19.5 14V5.2C19.5 5.1 19.5 5 19.4 4.9C19.3 4.3 19 3.7 18.5 3.2C18 2.6 17.2 2.1 16.4 1.7C14.8 1 12.5 0.5 10 0.5ZM10 2C12.3 2 14.4 2.4 15.9 3.1C16.6 3.4 17.2 3.8 17.5 4.2C17.8 4.6 18 4.9 18 5.3C18 5.6 17.9 6 17.5 6.4C17.1 6.8 16.6 7.2 15.9 7.5C14.4 8.1 12.3 8.5 10 8.5C7.7 8.5 5.6 8.1 4.1 7.4C3.4 7.1 2.8 6.7 2.5 6.3C2.2 5.9 2 5.6 2 5.3C2 5 2.1 4.6 2.5 4.2C2.8 3.8 3.4 3.4 4.1 3.1C5.6 2.4 7.7 2 10 2ZM10 4C7.8 4 6 4.6 6.1 5.3C6.1 5.9 7.8 6.5 10 6.5C12.2 6.5 14 5.9 13.9 5.2C13.9 4.5 12.1 4 10 4ZM18 7.9V14C18 14.9 17.3 15.9 15.8 16.7C14.4 17.5 12.3 18 10 18C7.7 18 5.6 17.5 4.2 16.7C2.8 15.9 2 14.9 2 14V7.9C2.4 8.2 2.9 8.5 3.5 8.8C5.2 9.6 7.5 10 10 10C12.5 10 14.8 9.5 16.5 8.8C17 8.5 17.6 8.2 18 7.9ZM7.3 11.5C6.8 11.5 6.5 11.8 6.5 12.2C6.5 12.6 6.8 13 7.3 13C7.8 13 8.1 12.7 8.1 12.2C8.1 11.7 7.7 11.5 7.3 11.5ZM12.8 11.5C12.4 11.5 12 11.8 12 12.3C12 12.8 12.3 13.1 12.8 13.1C13.3 13.1 13.6 12.8 13.6 12.3C13.6 11.8 13.2 11.5 12.8 11.5ZM7.3 14C6.9 14 6.5 14.3 6.5 14.7C6.5 15 6.6 15.2 6.8 15.3C8.7 16.7 11.3 16.7 13.2 15.3C13.5 15.1 13.6 14.6 13.4 14.3C13.2 14 12.7 13.9 12.4 14.1C11 15.1 9.2 15.1 7.8 14.1C7.6 14 7.4 14 7.3 14Z" fill="#212629"/>
</svg>
