<svg width="46" height="30" viewBox="0 0 46 30" fill="none" xmlns="http://www.w3.org/2000/svg">
<path d="M31.5 0.5C28.3 0.5 25.4 1.5 23 3.3C20.6 1.5 17.7 0.5 14.5 0.5C6.5 0.5 0 7 0 15C0 23 6.5 29.5 14.5 29.5C17.7 29.5 20.6 28.5 23 26.7C25.4 28.4 28.3 29.5 31.5 29.5C39.5 29.5 46 23 46 15C46 7 39.5 0.5 31.5 0.5ZM23 22.7C21.1 20.7 20 18 20 15C20 12 21.1 9.3 23 7.3C24.9 9.3 26 12 26 15C26 18 24.9 20.7 23 22.7ZM31.5 26.5C29.2 26.5 27.1 25.8 25.3 24.7C27.6 22.1 29 18.8 29 15C29 11.2 27.6 7.9 25.3 5.3C27.1 4.2 29.2 3.5 31.5 3.5C37.8 3.5 43 8.7 43 15C43 21.3 37.8 26.5 31.5 26.5Z" fill="#212629"/>
</svg>
