<svg width="21" height="16" viewBox="0 0 21 16" fill="none" xmlns="http://www.w3.org/2000/svg">
<path d="M2.8 0C1.2 0 0 1.2 0 2.8V5.8V8.8V13.3C0 14.8 1.2 16 2.8 16H17.3C18.8 16 20.1 14.8 20.1 13.2V8.8V5.8V2.8C20 1.2 18.8 0 17.3 0H2.8ZM2.8 1.5H17.3C18 1.5 18.6 2.1 18.6 2.8V3.4C18.1 3.1 17.7 3 17.3 3H2.8C2.3 3 1.9 3.1 1.5 3.3V2.8C1.5 2.1 2.1 1.5 2.8 1.5ZM2.8 4.5H17.3C18 4.5 18.6 5.1 18.6 5.8V6.4C18.1 6.1 17.7 6 17.3 6H13.1C12.3 6 11.7 6.5 11.4 7.2C11.2 7.8 10.6 8.2 10 8.2C9.4 8.2 8.8 7.8 8.6 7.2C8.3 6.5 7.7 6 6.9 6H2.8C2.3 6 1.9 6.1 1.5 6.3V5.8C1.5 5.1 2.1 4.5 2.8 4.5ZM2.8 7.5H7C7.1 7.5 7.2 7.6 7.2 7.7C7.6 8.9 8.7 9.7 10 9.7C11.3 9.7 12.4 8.8 12.8 7.7C12.8 7.6 12.9 7.5 13 7.5H17.2C17.9 7.5 18.5 8.1 18.5 8.8V13.3C18.5 14 17.9 14.6 17.2 14.6H2.8C2.1 14.6 1.5 14 1.5 13.3V8.8C1.5 8.1 2.1 7.5 2.8 7.5Z" fill="#212629"/>
</svg>
