<svg width="22" height="20" viewBox="0 0 22 20" fill="none" xmlns="http://www.w3.org/2000/svg">
<path d="M4.99032 0.5C3.69032 0.5 2.59032 1.4 1.99032 2.7C1.39032 4 0.990319 5.6 0.990319 7.5C0.990319 9.3 1.39032 10.9 2.09032 12.3C2.19032 12.4 2.29032 12.5 2.29032 12.6C1.69032 13.2 1.19032 13.7 1.19032 13.7C0.890319 13.9 0.790319 14.4 1.09032 14.8C1.29032 15.1 1.79032 15.2 2.19032 14.9C2.19032 14.9 2.69032 14.4 3.39032 13.8C4.09032 14.2 4.89032 14.5 5.79032 14.5C7.59032 14.5 9.39032 13.6 10.7903 12.3C11.2903 12.7 11.8903 13 12.5903 13C13.4903 13 14.1903 12.5 14.6903 12C15.1903 11.5 15.5903 10.8 15.8903 10.1C16.0903 9.7 16.1903 9.4 16.2903 9.1C16.2903 9.2 16.2903 9.3 16.2903 9.4C16.3903 9.9 16.3903 10.5 16.5903 10.9C16.6903 11.1 16.7903 11.4 16.9903 11.6C17.1903 11.8 17.5903 12 17.8903 12C18.3903 12 18.7903 11.7 18.9903 11.4C19.1903 11.1 19.2903 10.8 19.4903 10.5C19.7903 9.9 19.9903 9.3 20.5903 8.8C20.8903 8.5 20.9903 8.1 20.6903 7.7C20.3903 7.3 19.9903 7.3 19.5903 7.6C18.6903 8.3 18.2903 9.2 17.9903 9.8C17.8903 10 17.8903 10.1 17.7903 10.2C17.6903 9.9 17.5903 9.5 17.5903 9.1C17.4903 8.6 17.4903 8.1 17.3903 7.7C17.3903 7.5 17.2903 7.3 17.1903 7C17.2903 6.8 16.9903 6.5 16.4903 6.5C15.9903 6.5 15.7903 6.8 15.5903 7C15.3903 7.2 15.3903 7.5 15.2903 7.7C15.0903 8.2 14.7903 8.8 14.5903 9.4C14.2903 10 13.9903 10.6 13.5903 10.9C13.2903 11.3 12.8903 11.4 12.5903 11.4C12.2903 11.4 12.0903 11.3 11.7903 11.2C13.0903 9.8 13.9903 8.1 13.9903 6.5C13.9903 6 13.7903 5.4 13.4903 4.9C13.0903 4.4 12.4903 4 11.7903 4C10.7903 4 9.99032 4.6 9.59032 5.3C9.19032 6.1 8.99032 7.1 8.99032 8.3C8.99032 9.2 9.19032 10.3 9.69032 11.2C8.49032 12.3 7.09032 13.1 5.69032 13.1C5.19032 13.1 4.69032 13 4.39032 12.7C6.09032 10.7 7.99032 7.8 7.99032 4.3C7.99032 3.7 7.89032 2.8 7.39032 2.1C6.89032 1.4 6.19032 0.5 4.99032 0.5ZM4.99032 2C5.59032 2 5.89032 2.3 6.09032 2.7C6.39032 3.2 6.49032 3.8 6.49032 4.2C6.49032 7 4.89032 9.6 3.39032 11.4C2.89032 10.4 2.49032 9 2.49032 7.5C2.49032 5.7 2.79032 4.3 3.29032 3.3C3.79032 2.3 4.29032 2 4.99032 2ZM11.7903 5.5C12.0903 5.5 12.1903 5.6 12.2903 5.8C12.3903 6 12.4903 6.3 12.4903 6.5C12.4903 7.4 11.7903 8.7 10.8903 9.9C10.6903 9.4 10.4903 8.8 10.4903 8.3C10.4903 7.3 10.6903 6.5 10.8903 6.1C11.1903 5.6 11.3903 5.5 11.7903 5.5ZM1.79032 18C1.39032 18 0.990319 18.3 0.990319 18.7C0.990319 19.2 1.29032 19.5 1.79032 19.5H20.2903C20.6903 19.5 21.0903 19.2 21.0903 18.8C21.0903 18.4 20.7903 18 20.3903 18H1.79032Z" fill="#212629"/>
</svg>
