<svg width="21" height="23" viewBox="0 0 21 23" fill="none" xmlns="http://www.w3.org/2000/svg">
<path d="M10.5 0C9.9 0 9.5 0.4 9.5 1C9.5 1 9.5 1 9.5 1.1C5 1.6 1.5 5.4 1.5 10V10.5H0.8C0.4 10.5 0 10.8 0 11.2C0 11.7 0.3 12 0.7 12H2.2H3.1C3 12.3 3 12.5 3 12.8C3 13.3 3.2 13.7 3.3 13.9C3.6 14.6 3.7 15.2 3.8 15.8C3.9 16.3 4 16.8 4.4 17.2L3.7 19.1C3.6 19.5 3.8 19.9 4.1 20.1C4.5 20.2 4.9 20 5.1 19.7L5.7 18L9.6 19.4L9.1 21C9 21.4 9.2 21.8 9.5 22C9.9 22.1 10.3 21.9 10.5 21.6L11.3 19.3C11.4 19.1 11.9 18.4 12.5 17.9C13.1 17.3 13.8 16.8 14.2 16.5C15.9 15.3 17.5 14.4 17.5 14.4C18.3 13.9 18.6 13 18.4 12.2H18.7H20.2C20.6 12.2 21 11.9 21 11.5C21 11.1 20.7 10.7 20.3 10.7H19.5V10C19.5 5.4 16 1.6 11.5 1.1C11.5 0.5 11.1 0 10.5 0ZM10.5 2.5C14.7 2.5 18 5.8 18 10V10.5H16.5H3V10C3 5.8 6.4 2.5 10.5 2.5ZM5.2 12H5.3C5.5 12 5.6 12.1 5.8 12.2C5.8 12.2 5.8 12.3 5.9 12.3C6 12.4 6.1 12.6 6.2 12.9C6.5 13.3 6.8 13.8 7.2 14.2C7.9 15 8.8 15 9.3 15C10.1 15 10.7 14.6 11.6 14.2C12.5 13.8 13.4 13.3 14.2 12.9C14.4 12.8 14.8 12.6 15.3 12.4C15.8 12.2 16.3 12 16.6 12C16.8 12 17 12.1 17.1 12.3C17.2 12.5 17.1 12.8 16.9 12.9C16.9 12.9 15.2 13.8 13.5 15.1C13 15.5 12.3 16.1 11.6 16.7C11.2 17.1 10.8 17.5 10.4 18L5.8 16.4C5.6 16.2 5.5 16 5.5 15.6C5.4 15.1 5.3 14.3 4.9 13.4C4.8 13.1 4.7 12.9 4.7 12.8C4.7 12.6 4.8 12.4 4.9 12.3C4.9 12.1 5 12 5.2 12ZM7.4 12H12.7C12.1 12.3 11.5 12.6 11 12.9C10.2 13.3 9.4 13.5 9.3 13.5C8.8 13.5 8.6 13.5 8.3 13.2C8.1 13 7.7 12.5 7.5 12.1C7.4 12.1 7.4 12 7.4 12ZM7.3 19.6C6.9 19.6 6.5 19.9 6.5 20.4C6.5 20.8 6.8 21.2 7.3 21.2C7.7 21.2 8.1 20.9 8.1 20.4C8 19.9 7.7 19.6 7.3 19.6Z" fill="white"/>
</svg>
