<svg width="18" height="21" viewBox="0 0 18 21" fill="none" xmlns="http://www.w3.org/2000/svg">
<path d="M7.8 0C7.3 0 7 0.3 7 0.7C7 1.1 7.3 1.5 7.7 1.5H8.2V2.5C3.6 2.9 0 6.8 0 11.5C0 16.5 4 20.5 9 20.5C14 20.5 18 16.5 18 11.5C18 9.3 17.2 7.3 15.9 5.7L16.8 4.8C17.1 4.5 17.1 4 16.8 3.7C16.7 3.5 16.5 3.5 16.2 3.5C16 3.5 15.8 3.6 15.7 3.7L14.8 4.6C13.4 3.4 11.7 2.7 9.7 2.5V1.5H10.2C10.6 1.5 11 1.2 11 0.8C11 0.3 10.7 0 10.3 0H7.8ZM8.9 4C9 4 9 4 9.1 4C11.1 4 12.9 4.8 14.3 6.1L14.4 6.2C15.7 7.6 16.6 9.4 16.6 11.5C16.6 15.7 13.3 19 9.1 19C4.9 19 1.6 15.7 1.6 11.5C1.5 7.4 4.8 4.1 8.9 4ZM12.2 7.5C12 7.5 11.8 7.6 11.7 7.7L9.4 10C9.3 10 9.1 10 9 10C8.2 10 7.5 10.7 7.5 11.5C7.5 12.3 8.2 13 9 13C9.8 13 10.5 12.3 10.5 11.5C10.5 11.4 10.5 11.2 10.4 11.1L12.7 8.8C13 8.5 13 8 12.7 7.7C12.6 7.6 12.4 7.5 12.2 7.5Z" fill="#212629"/>
</svg>
