<svg width="24" height="15" viewBox="0 0 24 15" fill="none" xmlns="http://www.w3.org/2000/svg">
<path d="M15.8 0C14.2 0 12.7 0.5 11.5 1.4C10.3 0.5 8.8 0 7.3 0C3.3 0 0 3.3 0 7.3C0 11.3 3.3 14.6 7.3 14.6C8.9 14.6 10.4 14.1 11.6 13.2C12.8 14.1 14.3 14.6 15.9 14.6C19.9 14.6 23.2 11.3 23.2 7.3C23.2 3.3 19.7 0 15.8 0ZM11.5 11.1C10.6 10.1 10 8.7 10 7.2C10 5.7 10.6 4.4 11.5 3.3C12.4 4.3 13 5.7 13 7.2C13 8.7 12.4 10.1 11.5 11.1ZM15.8 13C14.7 13 13.6 12.7 12.7 12.1C13.9 10.8 14.6 9.1 14.6 7.3C14.6 5.5 13.9 3.8 12.7 2.5C13.6 1.9 14.7 1.6 15.8 1.6C19 1.6 21.6 4.2 21.6 7.4C21.6 10.6 18.9 13 15.8 13Z" fill="#212629"/>
</svg>
