<svg width="44" height="30" viewBox="0 0 44 30" fill="none" xmlns="http://www.w3.org/2000/svg">
<path d="M6.5 0C2.9 0 0 2.9 0 6.5V23.5C0 27.1 2.9 30 6.5 30H37.5C41.1 30 44 27.1 44 23.5V6.5C44 2.9 41.1 0 37.5 0H6.5ZM6.5 3H37.5C39.5 3 41 4.5 41 6.5V23.5C41 25.5 39.5 27 37.5 27H6.5C4.5 27 3 25.5 3 23.5V6.5C3 4.5 4.5 3 6.5 3ZM26.2 9.5C23.3 9.5 21.8 10.9 21.8 12.8C21.8 16.1 25.6 15.7 25.6 17.4C25.6 17.7 25.4 18.4 23.8 18.4C22.2 18.4 21.1 17.8 21.1 17.8L20.6 20C20.6 20 21.6 20.6 23.6 20.6C25.6 20.6 28.3 19.1 28.3 16.8C28.3 14.1 24.4 13.9 24.4 12.8C24.4 12.2 24.9 11.7 26.3 11.7C27.2 11.7 28.2 12.4 28.2 12.4L28.6 10.1C28.8 10 27.4 9.5 26.2 9.5ZM16.7 9.7H13.7L11.2 17.1C11.2 17.1 11.1 16.5 11 16.1C9.6 12.9 7.2 11.7 7.2 11.7L9.4 20.2H12.5L16.7 9.7ZM17.8 9.7L16.2 20.2H19L20.7 9.7H17.8ZM32.8 9.7L28.2 20.2H31L31.6 18.7H35.1L35.4 20.2H37.9L35.8 9.7H32.8ZM4.1 9.7C4.1 9.7 9.6 11.4 10.8 15.5L9.9 10.8C9.9 10.8 9.5 9.8 8.4 9.8H4.1V9.7ZM33.9 12.7L34.7 16.7H32.4L33.9 12.7Z" fill="#212629"/>
</svg>
