<svg width="21"  height="21" viewBox="0 0 21 21" fill="none" xmlns="http://www.w3.org/2000/svg">
<path d="M10.0588 0.673828C4.55885 0.673828 0.0588457 5.17383 0.0588457 10.6738C0.0588457 12.2738 0.458846 13.8738 1.15885 15.1738L0.0588457 19.0738C-0.241154 19.9738 0.658846 20.8738 1.55885 20.5738L5.45885 19.4738C6.85885 20.2738 8.45885 20.6738 10.0588 20.6738C15.5588 20.6738 20.0588 16.1738 20.0588 10.6738C20.0588 5.17383 15.5588 0.673828 10.0588 0.673828ZM10.0588 2.17383C14.7588 2.17383 18.5588 5.97383 18.5588 10.6738C18.5588 15.3738 14.7588 19.1738 10.0588 19.1738C8.55885 19.1738 7.15885 18.7738 5.95885 18.0738C5.75885 17.9738 5.55885 17.9738 5.35885 17.9738L1.65885 18.9738L2.65885 15.2738C2.75885 15.0738 2.65885 14.8738 2.55885 14.6738C1.85885 13.4738 1.45885 12.0738 1.45885 10.5738C1.55885 5.97383 5.35885 2.17383 10.0588 2.17383ZM6.65885 6.17383C6.55885 6.17383 6.25885 6.27383 6.05885 6.47383C5.85885 6.67383 5.15885 7.27383 5.15885 8.47383C5.15885 9.67383 6.05885 10.7738 6.15885 10.9738C6.25885 11.1738 7.85885 13.5738 10.2588 14.5738C12.2588 15.3738 12.6588 15.1738 13.1588 15.1738C13.5588 15.1738 14.5588 14.5738 14.7588 14.0738C14.9588 13.4738 14.9588 13.0738 14.8588 12.9738C14.7588 12.8738 14.6588 12.7738 14.3588 12.6738C14.1588 12.5738 12.9588 11.9738 12.7588 11.8738C12.5588 11.7738 12.3588 11.7738 12.2588 11.9738C12.0588 12.1738 11.6588 12.7738 11.4588 12.8738C11.3588 13.0738 11.1588 13.0738 10.9588 12.9738C10.7588 12.8738 9.95885 12.5738 9.05885 11.7738C8.35885 11.1738 7.85885 10.3738 7.75885 10.0738C7.55885 9.87383 7.75885 9.67383 7.85885 9.57383C7.95885 9.47383 8.05885 9.27383 8.15885 9.17383C8.25885 9.07383 8.35885 8.97383 8.35885 8.77383C8.45885 8.57383 8.35885 8.47383 8.35885 8.37383C8.35885 8.27383 7.85885 7.07383 7.65885 6.57383C7.45885 6.17383 7.25885 6.17383 7.15885 6.17383C6.95885 6.17383 6.85885 6.17383 6.65885 6.17383Z" fill="#25D366"/>
</svg>
